<svg xmlns="http://www.w3.org/2000/svg" preserveAspectRatio="none" width="120" height="120"><path fill-opacity=".988" d="M119.992 119.977V0H0v119.977h119.992z"/><path fill="#2F9964" fill-opacity=".988" d="M51.806 99.65q.049 1.5 1.87 1.5 2.557 0 3.541.65 0-1.9-4.23-1.9-.69 0-1.181-.25m18.547-6.3q.69 1.8.394 4.75 0 1.6-1.82 1.9l-.984 1.85q-.345-.9-1.624-1.8-1.328-.8-2.312-.8-.541 0-1.624.35-1.082.35-2.017.95-.984.6-1.722 1.25-.59.45-.738.95.05.15.05.35v.75q0 .45-.148.5l.787-.1q0-.6.738-1.2.738-.65 1.722-1.25.935-.6 2.066-.95 1.033-.35 1.624-.35.935 0 2.312.8 1.23.9 1.574 1.8l.984-1.85q1.82-.3 1.82-1.9.443-4.1-1.082-6m-2.804-5.7q.541 1.3.59 3.3.394.15.64.35-.246-2.55-1.23-3.65m0-1.8q-.295-.45-.738-.45-.148 0-.443.15l-.147.3q.492.3.885.85l.443-.85m-3.493-2.15.541 1.25q1.083-.8 1.476-.8.394 0 .64.35l.098-.6q0-.55-.541-.55h-1.525q-.492.1-.689.35m2.755-3.85-1.18-.9Q63.465 80.5 63.465 81q0 1.1.344 1.1h.394q.295-.6 2.607-2.25M41.77 98.65q0 .1-.787.2l-4.28.85q-1.132.3-1.87.55l-1.23-.05q-.885 0-2.214-.15-1.131-.05-2.312-.3-1.18-.2-1.623-.6h-.197q-.394 0-1.23.55-.837.55-1.23.55h-.197q0 1.25.886 1.25.442 0 1.23-.55.885-.55 1.23-.55h.196q.443.4 1.624.6 1.18.25 2.361.3 1.329.15 2.214.15l1.23.05q.738-.3 1.87-.55 1.23-.3 2.263-.5l1.968-.35q.787-.1.787-.2l.295-1.05q-.885-2.1-.885-2.3-.296-.5-.64-.9l.836 1.95-.295 1.05M58.201 77.1l-.098-.1.098.2v-.1m-.787-20q.05.3.295.65v-.05q0-.2-.295-.6m6.544 15.6q-.345.85-.345 1.5 0 .55.541 1.05l.296 2.05.59.5-.197-1.3q-.492-.5-.492-1.05 0-.7.295-1.5.296-.75.296-.85 0-.35-.738-1.15l-.246.75m.64-6.95q0-.6-.739-1.35v.1q0 .2-.738 1.6-.836 1.45-.738 2.6l.099 1.1q.393.3.64.55v-.4q-.1-1.15.688-2.6.787-1.45.787-1.6m-.443-6.65q0 .65-.885 1.6-.935.85-1.132 1.35.05.25.886.95.344-.5.935-1.05.885-.9.885-1.6 0-.7-.836-1.9.147.4.147.65M29.52 89.9q0-.2-.099-.35v.25q0 .3.148.5l-.05-.4m9.053-6.65-.147.05q-.099.25-.541.25l-.197-.05q-.541.2-.787.2-.345 0-.59-.5l-.198-.05q-.246-.15-.492.15l-.393.4.098.55q.099.6-.492 2.05-.492 1.6-.492 2.1 0 1.55.837 2.4-.099-.5-.099-1.15 0-.6.492-2.1.541-1.55.443-2.05l-.098-.55.393-.4q.246-.3.492-.15l1.23.25q.345.15.541.15.542 0 .542-.4v-.35q0-.8-.542-.8m-.147-6.3.787.35q.787-3.05 2.657-3.05h.246q.59.65 1.476.65.54 0 1.721-.45 1.23-.5 1.87-.5.984 0 2.165.05 1.918.1 2.214.1 1.525 0 2.607-.15.984-.2 1.722-.2.59 0 1.033.4-.295-.9-.689-1.25-.393-.4-1.082-.4-.738 0-1.722.2-1.082.15-2.558.15-.295 0-2.214-.1-1.18-.05-2.165-.05-.64 0-1.87.5-1.18.45-1.721.45-.886 0-1.525-.65h-.246q-1.23 0-2.017 1.4v.2q0 1.1-.69 2.35m-2.115-5h-.098l-.64.75q-1.082 1.15-1.328 1.9v.2q.148 1.35.344 2.7.197 1.7.64 3.3.295 1.4.787 1.6l-.098-.35q-.394-1.7-.64-3.3-.197-1.6-.295-2.7v-.2q.246-.75 1.328-1.9l.59-.75h.099q.886 0 1.427.25v-.1q0-1.4-2.116-1.4m-1.525-13q-.098.35-.295.9-.246.7-.59 1.55l.54 3q.197.85.739 1.2l-.59-2.95q.393-.85.59-1.55.295-.7.393-1.3-.492-.3-.787-.85m1.328-11.4q-2.017 0-2.017 1.45 0 .55.148 1.35.098.95.098 1.45 0 .6-.295 2-.295 1.5-.295 2.5 0 1.2.738 1.95-.05-.35-.05-.7 0-.95.296-2.5.344-1.5.344-2 0-.45-.147-1.45-.148-.8-.148-1.35 0-1.45 2.017-1.45.197 0 .394.1-.295-1.35-1.083-1.35m-11.266-.3q-.394 1.3-1.18 1.3h-.197q.049 1.2.295 1.2l.64.05q.737 0 1.13-1.3.444-1.4.64-1.4l1.034-.05q.147 0 .688.9.886 1.55 1.034 1.75l-.443-.8q-1.033-1.8-1.28-2.2-.344-.6-.54-.75v.4q-.394-.3-1.181-.3h-.197q-.197.4-.443 1.2m42.95-.05q-.492.55-.492 1.1 0 .8.59 2.15-.836.3-1.672.3-.738 0-1.624-.9-.787-.9-1.427-.8l-.442 1.9q.54 1 .54 1.95l-.983 2.75q.098.35.738 1.2l.935-2.7q0-.95-.542-1.95l.443-1.9q.64-.1 1.476.8.837.9 1.574.9.886 0 1.673-.3-.541-1.3-.541-2.15 0-.55.443-1.1.541-.6.984-1l1.082-.9q.394-.3.394-.4 0-.5-.394-1.25l-.443-.7q.148.4.148.7 0 .1-.443.4l-1.033.9q-.64.6-.984 1m-13.53-.15q-.344 0-.983.5-.542.45-.984.45-.837 0-1.378-.5.541 1.75 2.116 1.75.393 0 .984-.45.59-.5.934-.5.788 0 1.476.95l-.098-.2q-.935-2-2.066-2M43.639 48v-.3q0-.5-.689-.85-.197.65-2.41-.4-.69 0-1.87 1.2-.837.9-1.132 1.55.394.6.492 1.75.197-.85 1.329-2.05 1.18-1.2 1.87-1.2 2.41 1.1 2.41.3m-3.05-3.8q.098.35.098.6.05.1.443.3-.148-.25-.542-.9m74.437 54.1q.69-1 .69-1.55l-.69-1.25q0 .55-.688 1.55-.738 1-.738 1.5 0 1.35-.492 1.3-.443-.05-1.28-.05-1.131 0-2.214 1.25-.295 0-3.591-.35-3.64-.35-7.527-.35-.984 0-2.214-.2l-5.461-.75q-1.28-.2-2.165-.2-.492 0-1.574.45-1.132.4-1.673.4-.738 0-2.362-.5-1.525-.5-3.296-1.25-1.623-.75-2.902-1.75-.345-.3-.542-.5.099.8 1.23 1.75 1.23.95 2.952 1.75 1.624.7 3.247 1.25 1.673.5 2.411.5.541 0 1.673-.4 1.082-.45 1.525-.45.885 0 2.165.2l5.51.75q1.18.2 2.164.2 3.936 0 7.528.35 3.296.35 3.591.35 1.083-1.25 2.214-1.25.837 0 1.28.05.491.05.491-1.3 0-.45.738-1.5m-4.28-7.05-.098.1.147.35.148-.05-.197-.4m-7.134-15.8q-1.131.45-1.279.45h-.049q-1.378 1.7-1.378 2.6 0 1.05.542 2.7.64 1.7.64 2.7 0 .3.098.8.098.7.098.9 0 .35-.64.7-.59.3-.59.7l.197.65.541.65v-.05q0-.4.59-.7.59-.35.59-.7 0-.4-.098-.9-.049-.45-.049-.8 0-.95-.64-2.7-.59-1.7-.59-2.7 0-1.15 2.214-3.55l-.197-.75m-13.578 2.9V78q0-.6-1.132-1.05l-.344.15q-.59.3-.738.6 1.426.25 2.214.65m2.41 4.05q-.098-.7-1.18-1.8-.246-.2-.394-.35.295.85 1.082 1.6l.492.55m-1.722 3.45.05.1.049-.1h-.099m-1.525-14.2v.1q0 .65 1.23 1.55.197.1.541.4-.196-.9-1.23-1.65l-.54-.4m-2.116-8.2q.64 0 1.426.65.886.65 1.575 1.6l.197.25q-.492-.9-.935-1.5-.738-.95-1.525-1.6-.837-.65-1.427-.65-1.082 0-2.952.65-.492-.05-1.525-.7-.935-.6-1.968-1.45-.935-.8-1.673-1.6.099.45.64 1.2.787.85 1.722 1.65.935.8 2.017 1.45.984.65 1.525.7 1.82-.65 2.903-.65m14.562 2.65q-.344-.4-.787-1.1-.689 1.05-1.279 2.95l.738 1.15q.64-1.95 1.328-3m-.492 4.45-.738-1.1v1.8q0 2.9.886 3.3-.148-.7-.148-2.05v-1.95m-1.23-8.4q0-.95.69-2.2l-1.182-.15q-.246.65-.246 1.1 0 1.5 1.132 3.15-.394-1-.394-1.9m.246-14.45q0 .15-.246.35-.246.3-.246.4 0 .45.542 1.15l-1.722 1.2.196 2.05q0 .2-.983.85-.886.65-1.181.65-.246 0-.443-.15l-.394-.55-1.377 1.2.885 1.1 1.181-1.05.394.55q.197.15.443.15.295 0 1.23-.65.934-.65.934-.85l-.197-2.05 1.772-1.2q-.59-.7-.59-1.15 0-.1.294-.4.197-.25.197-.35l-.197-1.6q-.147 0-.54-.25l.048.6m-3.64-6.25-.443 1.8q0 .25.492.65l.344.25.246-1.05q.345-1.5.05-1.5l-.69-.15z"/><path fill="#309A64" fill-opacity=".988" d="M40.8 44.8q0-.25-.1-.6-.2-.6-.9-1.5-1-1.25-1.9-1.25-.25 0-.95.25l-1.75.55q-1 .35-1.95.7l-1.5.6q-.9 0-2.6-2.45l-.35-.5q-2.9 2.1-2.9 2.95 0 .15.1.25.2.1.2.2l-.1 1.1q-.35-.3-1.15-.3-.8 0-1.85.4l-.2 1.65q0 1.65.3 1.65l.6.05q.8 0 1.2-1.3.25-.8.45-1.2.05-.2.15-.2l1.05-.05q.05 0 .15.15.2.15.55.75.25.4 1.3 2.2l2.3 4.5q0 1-.95 2.15-1 1.15-1 1.45 0 .85.4 2.05l1 2.25q.5 1.25.8 2.5.3 1.3.15 2.55l-.2 1.1-1.65 1.4-.2 1.2q0 .9.45 1.5.1.1.3.45.15.35.25.55l.15.8q0 .95.1 2.4.15 1.55.15 2.4v.3q0 1.85-2.1 3.2.05.5.7 1.9.65 1.35.65 1.7 0 .45-.55 1.65-.6 1.15-.6 1.65 0 .45.45.7.2.15.3.3.1.15.1.35l.1.9q0 1-.7 1.95-.65.9-1.7.9-.95 0-2.1-.6-1.2 1.2-1.2 5.95 0 1.1.7 1.25h.2q.4 0 1.25-.55.8-.55 1.2-.55h.2q.45.4 1.6.6 1.2.25 2.35.3 1.3.15 2.2.15l1.25.05q.75-.25 1.85-.55l4.25-.85q.85-.1.85-.2l.25-1.05-.8-1.95-.1-.35q-.6-1.15-1.75-1.75-.8-.45-2.25-1.25-1.2-.6-1.95-1.5h-.05q-.8-.85-.8-2.4 0-.5.5-2.1.55-1.45.45-2.05l-.1-.55.4-.4q.25-.3.5-.15l1.25.25q.2.1.35.1l.15.05q.45 0 .55-.25v-.5q0-.8-.55-.8-.15 0-.75.2-.6.25-.9.25-.1 0-.2-.05-.5-.2-.8-1.6-.4-1.6-.6-3.3-.2-1.35-.35-2.7v-.2q.25-.75 1.3-1.9l.65-.75h.1q2.1 0 2.1 1.4v.1q-.05 1.05-.7 2.25l.8.35q.25-.95.6-1.65.8-1.4 2.05-1.4h.25q.6.65 1.45.65.6 0 1.75-.45 1.25-.5 1.85-.5 1 0 2.2.05 1.9.1 2.2.1 1.5 0 2.6-.15.95-.2 1.7-.2.65 0 1.05.4.4.35.75 1.25l.1.4q.5 2 1.05 2.45l.1.1-.4 2.25q-.75.5-.9 1.05-.2.6.2 2 .5 1.4.5 1.5l-.1 1.35q-.95.4-.95 1.25 0 .5.55 1.5.5.95.5 1.55 0 .5-.6 1-.45.35-1.3.95-.9.5-1.3.7-.6.35-.6.6l-1.5.8q-1.2 2.05-1.2 4.75 0 .95.7 1.3.5.25 1.2.25 4.2 0 4.2 1.9v.8q0 .45-.15.5l.8-.1.05-.25q.1-.5.7-.95.75-.65 1.75-1.25.9-.6 2-.95t1.65-.35q1 0 2.3.8 1.25.9 1.6 1.8l1-1.85q1.85-.3 1.85-1.9.3-2.95-.45-4.75-.45-1.3-1.55-2.05-.25-.2-.65-.35-.05-2-.55-3.3-.15-.45-.45-.95-.4-.55-.9-.85l.6-1.25q0-.05-.1-.1-.25-.35-.65-.35t-1.45.8l-.55-1.25q.2-.25.7-.35h1.25l.05-.7q0-.55-.5-.55h-1.75q-.35 0-.35-1.1 0-.5 2.15-2.05l.45-.35-1.65-1.3-.25-2.05q-.55-.5-.55-1.05 0-.65.35-1.5l.25-.75.05-.1q0-.45-1.15-1.5-.2-.25-.65-.55l-.1-1.1q-.05-1.15.75-2.6.75-1.4.75-1.6v-.1q-.05-.6-.8-1.35l-.05-.05q-.8-.7-.9-.95.2-.5 1.15-1.35.9-.95.9-1.6 0-.25-.15-.65-.2-.55-.75-1.25l-.2-.35q-.7-.85-.75-1.2l.95-2.75q0-.95-.55-1.95l.45-1.9q.65-.1 1.45.8.85.9 1.6.9.85 0 1.65-.3-.55-1.35-.55-2.15 0-.55.45-1.1l1-1 1.05-.9q.45-.3.45-.4 0-.3-.15-.7-.15-.3-.3-.55-.45-.8-1.1-1.55-.6-.8-1.1-1.3-.55-.6-.8-.6-.6 0-1.65 1.1-1 1-1.65 1-1 0-2.8-.35-1.75-.45-2.85-.45l-3.15.05q-1.25.05-2.05.45-.8.45-1.35 1.4t-1.15 2.7q.25.95.75 1.4.55.5 1.4.5.45 0 1-.45.6-.5.95-.5 1.15 0 2.05 2l.1.2q.7 1.5 1.3 3 0 .65-.5 1.75-.5 1.05-.5 1.75 0 .45.5 1.05l.2.3q.3.4.3.6v.05q-.05.85-.5 1.85-.4 1-.4 1.8 0 .85-.65 2.4-.6 1.55-1.5 1.55-.6 0-.9-.5-.3-.45-.85-.55l-.55-.1q-.45 0-1.25.8-.7.8-1.2.8-.65 0-1.6-1l-.9-.95-1.3 1.2q-2.65-.15-4.9-.3-2.45-.2-2.8-1.7-.9.35-.7 1.35l.15.95q-.35.65-1.4.65-.8 0-1.3-.4-.55-.35-.7-1.2l-.55-3q.35-.85.6-1.55.2-.55.25-.9.05-.15.1-.4l-.35-.3q-.75-.75-.75-1.95 0-1 .25-2.5.35-1.4.35-2 0-.5-.15-1.45-.1-.8-.1-1.35 0-1.45 2-1.45.75 0 1.1 1.35l.15.8q.05-.25.15-.5.35-.65 1.15-1.55 1.15-1.2 1.9-1.2 2.2 1.05 2.35.4l.05-.1v-.3q0-.55-1.1-1-.4-.15-.75-.35-.35-.2-.45-.3m49-2.5q-1 .9-2 .9-.9.1-1.65.25-.7.15-1.1.75-.45.6-.45 2.65 0 1.2.7 2.35.7 1.15.7 2.75 0 1.85-.55 2.35-.55.55-2.2.35l.15 1.25-.8.65q-.5 0-1.4-.15-.9-.15-1.4-.15-2.1 0-2.1 1.35 0 .55.65 1.45l.05.05q.75.8 1.65 1.6 1.1.85 2 1.45 1 .65 1.55.7 1.85-.65 2.9-.65.65 0 1.45.65.8.65 1.55 1.6.4.6.9 1.5l.25.6q.45 1.1.45 2.05 0 1.8-1.85 1.5l-.55-.1-.1.5q0 .5.75 1.15l.5.4q1.05.75 1.25 1.65v.35q0 .35-.55.6-.7.35-1.25.6-.7.35-1.3.6-.6.3-.75.6 1.1.2 1.8.5 1.1.45 1.1 1.05l.05.35q.1 1 .8 1.9.15.15.4.35 1.1 1.1 1.15 1.8l.05.15q0 1-2.45 2.05l.75 1.25h.05l-.05.1-.5 1.75q-.45.4-.95.4-.35 0-1.55-.4-1.15-.35-1.15.8v1.7q0 .45-.4.45-.45 0-1.3-.15-.95-.15-1.35-.15-.45 0-1.45.95-.95.95-1.6.85h-.4q-1.2.8-2.9 1.35-1.65.55-1.65 1.2 0 .6.7 1.35.25.2.6.5 1.25 1 2.9 1.75 1.75.75 3.3 1.25 1.6.5 2.35.5.55 0 1.7-.4 1.05-.45 1.55-.45.85 0 2.15.2l5.5.75q1.2.2 2.15.2 3.95 0 7.55.35 3.3.35 3.6.35 1.05-1.25 2.2-1.25.8 0 1.3.05t.5-1.3q0-.5.7-1.5t.7-1.55l-.35-.7q-.75-1.25-1.6-2.35-.9-1.1-1.5-.9l-.65.1-.15.05-.7-1.7q-1.25 1.15-3 .85-.3-1.1-1.25-1.1-3 0-3.7-1.1l-.85-1-.2-.65q0-.4.6-.7.6-.35.6-.7 0-.2-.05-.9-.1-.5-.1-.8 0-1-.65-2.7-.6-1.65-.6-2.7 0-.9 1.4-2.6l.85-.95-.2-.75q-1.1.45-1.3.45-.2 0-.3-.1-.9-.4-.9-3.3V69.3l-.85-1.35q.6-1.9 1.25-2.95l.15-.15q-.4-.45-.65-.8-1.1-1.65-1.1-3.15 0-.45.2-1.1.15-.55.45-1.1l-1.3-.2Q96.75 55.8 96 56l-.45.2-1.1-1.35 1.35-1.2.4.55q.2.15.45.15.3 0 1.2-.65.95-.65.95-.85l-.2-2.05 1.75-1.2q-.55-.7-.55-1.15 0-.1.25-.4.25-.2.25-.35l-.2-1.6q-.25 0-.85-.4-.5-.25-1.35-.9-.6-.4-.85-.65l-.35-.25q-.5-.4-.5-.65l.45-1.8q.25-1.1 0-1.1l-.95-.15-1.85.15q-2.2 2.15-3.8 1.95h-.25z"/></svg>